<svg
                  width="14"
                  height="12"
                  viewBox="0 0 14 12"
                  fill="none"
                  xmlns="http://www.w3.org/2000/svg"
                  className="left-arrow"
                >
                  <path
                    fillRule="evenodd"
                    clipRule="evenodd"
                    d="M0.75 6C0.75 5.58579 1.08579 5.25 1.5 5.25H12.5C12.9142 5.25 13.25 5.58579 13.25 6C13.25 6.41421 12.9142 6.75 12.5 6.75H1.5C1.08579 6.75 0.75 6.41421 0.75 6Z"
                    fill="currentColor"
                  />
                  <path
                    fillRule="evenodd"
                    clipRule="evenodd"
                    d="M6.53033 0.96967C6.82322 1.26256 6.82322 1.73744 6.53033 2.03033L2.56066 6L6.53033 9.96967C6.82322 10.2626 6.82322 10.7374 6.53033 11.0303C6.23744 11.3232 5.76256 11.3232 5.46967 11.0303L0.96967 6.53033C0.676777 6.23744 0.676777 5.76256 0.96967 5.46967L5.46967 0.96967C5.76256 0.676777 6.23744 0.676777 6.53033 0.96967Z"
                    fill="currentColor"
                  />
                </svg>
