<svg width="24" height="24" viewBox="0 0 24 24" fill="none" xmlns="http://www.w3.org/2000/svg">
<mask id="mask0" mask-type="alpha" maskUnits="userSpaceOnUse" x="2" y="2" width="20" height="20">
<path fill-rule="evenodd" clip-rule="evenodd" d="M10 2.5C5.85787 2.5 2.5 5.85787 2.5 10C2.5 14.1421 5.85786 17.5 10 17.5C11.8912 17.5 13.6188 16.8001 14.9381 15.6451L20.6464 21.3535L20.7157 21.4114C20.9106 21.5464 21.18 21.5271 21.3535 21.3536C21.5488 21.1583 21.5488 20.8417 21.3536 20.6465L15.6452 14.938C16.8001 13.6187 17.5 11.8911 17.5 10C17.5 5.85786 14.1421 2.5 10 2.5ZM10 3.5C13.5899 3.5 16.5 6.41015 16.5 10C16.5 13.5899 13.5899 16.5 10 16.5C6.41015 16.5 3.5 13.5899 3.5 10C3.5 6.41015 6.41015 3.5 10 3.5Z" fill="white"/>
</mask>
<g mask="url(#mask0)">
<rect width="24" height="24" fill="#6A6A6A"/>
</g>
</svg>
